# xmcd
#
# Track frame offsets:
#	182
#	10890
#	23192
#	32327
#	44755
#	54810
#	67382
#	77257
#	90612
#	102035
#
# Disc length: 1526
#
# Revision: 2
# Processed by: cddbd v1.5.1PL0 Copyright (c) Steve Scherf et al.
# Submitted via: audiograbber 1.81.02
# Normalized: r1:TDELIM( - )
#
DISCID=7005f40a
DTITLE=Hank Thompson - Greatest Hits - Vol. 2
DYEAR=1993
DGENRE=Country
TTITLE0=Hank Thompson - Whoa Sailor
TTITLE1=Hank Thompson - The New Wears Off Too Fast
TTITLE2=Hank Thompson - No Help Wanted
TTITLE3=Hank Thompson - Breakin' the Rules
TTITLE4=Hank Thompson - A Fooler, A Faker
TTITLE5=Hank Thomson - We've Gone Too Far
TTITLE6=Hank Thompson - The New Green Light
TTITLE7=Hank Thompson - Wildwood Flower (w Merle Travis)
TTITLE8=Hank Thompson - Breakin' in Another Heart
TTITLE9=Hank Thompson - Most of All
EXTD=
EXTT0=
EXTT1=
EXTT2=
EXTT3=
EXTT4=
EXTT5=
EXTT6=
EXTT7=
EXTT8=
EXTT9=
PLAYORDER=
